<svg t="1733755457128" class="icon" viewBox="0 0 1024 1024" version="1.1" xmlns="http://www.w3.org/2000/svg" p-id="4038" xmlns:xlink="http://www.w3.org/1999/xlink" width="1rem" height="1rem"><path d="M512 36.571429a475.428571 475.428571 0 1 1 0 950.857142 475.428571 475.428571 0 0 1 0-950.857142z m0 73.142857a402.285714 402.285714 0 1 0 0 804.571428 402.285714 402.285714 0 0 0 0-804.571428z" fill="#1296db" p-id="4039"></path><path d="M269.750857 105.179429c194.852571-18.285714 300.617143 15.506286 289.718857 120.173714-6.802286 64.804571-37.302857 86.601143-100.644571 98.889143l-9.874286 1.901714c-28.525714 5.851429-38.253714 12.288-45.641143 33.28-6.582857 18.797714-2.121143 31.451429 17.700572 56.612571 25.965714 32.914286 23.552 29.696 29.549714 43.008 18.212571 40.813714 0 77.165714-49.956571 107.52-44.105143 26.843429-83.968 30.354286-117.467429 9.362286-23.186286-14.555429-36.425143-33.572571-56.100571-71.387428l-5.266286-10.020572c-11.190857-21.577143-17.773714-31.378286-23.04-35.108571-18.432-13.092571-54.491429-9.874286-110.006857 16.310857L57.563429 409.6c76.8-36.278857 138.532571-41.764571 183.588571-9.801143 18.139429 12.946286 28.818286 28.818286 45.494857 60.928l5.266286 10.020572c13.604571 26.258286 21.796571 38.034286 30.061714 43.154285 7.533714 4.754286 18.285714 3.803429 40.594286-9.801143 21.796571-13.238857 21.942857-13.531429 21.211428-15.213714-2.121143-4.681143-1.462857-3.803429-20.187428-27.574857-33.718857-42.715429-46.226286-77.970286-29.257143-126.171429 17.481143-49.664 48.786286-70.070857 99.84-80.603428l10.678857-2.121143c35.474286-6.875429 39.277714-9.508571 41.837714-34.669714 3.657143-34.669714-57.197714-54.125714-210.139428-39.716572l-6.802286-72.850285zM751.250286 133.339429a36.571429 36.571429 0 0 1 48.128 55.149714c-60.416 52.662857-100.790857 94.573714-120.466286 124.342857a109.860571 109.860571 0 0 0-9.581714 17.115429l-0.512 1.170285 1.097143 0.585143a33.572571 33.572571 0 0 0 18.870857 3.218286l7.168-1.243429a247.954286 247.954286 0 0 0 17.554285-4.681143c33.206857-9.508571 55.881143-11.995429 87.625143-5.632 100.937143 20.333714 103.204571 180.150857 10.605715 180.150858-5.266286 0-12.068571-0.365714-27.721143-1.170286a530.285714 530.285714 0 0 0-73.947429 0.365714c-56.32 4.900571-79.725714 19.675429-77.312 47.104 2.925714 34.011429 17.408 56.612571 48.859429 84.333714l6.875428 5.851429 11.702857 10.093714c6.290286 5.339429 12.361143 10.605714 15.286858 13.238857 26.331429 24.283429 40.228571 46.957714 40.228571 77.312 0 49.444571-27.062857 117.101714-80.310857 206.848a36.571429 36.571429 0 0 1-62.902857-37.376c47.030857-79.140571 70.144-136.923429 70.144-169.472 0-5.339429-4.022857-11.702857-16.749715-23.478857-5.339429-4.973714-28.525714-24.429714-32.621714-28.086857-44.251429-39.058286-68.534857-77.019429-73.362286-133.046857-7.021714-80.749714 52.516571-118.198857 143.725715-126.171429 26.331429-2.267429 51.346286-2.194286 83.968-0.585142 16.091429 0.877714 20.918857 1.097143 24.137143 1.097142-7.68 0-5.851429-3.072-5.851429-11.556571-0.219429-13.092571-6.070857-21.065143-19.236571-23.771429-18.066286-3.657143-30.134857-2.194286-53.174858 4.315429-14.628571 4.169143-15.579429 4.388571-21.796571 5.778286a110.445714 110.445714 0 0 1-86.601143-14.628572c-41.984-25.234286-38.985143-70.070857-7.168-118.125714 24.137143-36.425143 68.388571-82.285714 133.339429-138.971429zM150.674286 654.774857c92.745143-37.449143 164.352-46.665143 216.429714-23.698286 38.765714 17.115429 60.781714 43.885714 70.656 78.848 2.998857 10.678857 4.096 16.969143 6.509714 34.962286 1.536 11.776 2.56 15.433143 1.609143 14.409143 1.462857 1.536 6.363429 3.876571 20.187429 8.704 46.957714 16.457143 69.046857 33.718857 69.046857 78.482286 0 36.717714-11.702857 76.361143-34.596572 119.222857a36.571429 36.571429 0 1 1-64.512-34.450286c17.554286-32.987429 25.965714-61.293714 25.965715-84.772571 0-2.267429-0.219429-2.486857-19.675429-9.289143-25.746286-8.996571-36.790857-14.262857-49.298286-27.428572-13.897143-14.482286-17.554286-27.428571-21.211428-55.149714a163.108571 163.108571 0 0 0-4.388572-24.868571c-4.169143-14.628571-11.702857-23.698286-29.842285-31.744-29.622857-13.019429-83.382857-6.144-159.451429 24.576-9.728 3.949714-24.502857 10.24-44.178286 18.797714a36.571429 36.571429 0 1 1-29.257142-66.998857c20.260571-8.850286 35.620571-15.36 46.08-19.602286z" fill="#1296db" p-id="4040"></path></svg>