<svg t="1733755525446" class="icon" viewBox="0 0 1024 1024" version="1.1" xmlns="http://www.w3.org/2000/svg" p-id="8290" xmlns:xlink="http://www.w3.org/1999/xlink" width="1rem" height="1rem"><path d="M146.286446 219.794286m18.285714 0l512 0q18.285714 0 18.285714 18.285714l0 0q0 18.285714-18.285714 18.285714l-512 0q-18.285714 0-18.285714-18.285714l0 0q0-18.285714 18.285714-18.285714Z" fill="#1296db" p-id="8291"></path><path d="M146.286446 457.508571m18.285714 0l182.857143 0q18.285714 0 18.285714 18.285715l0 0q0 18.285714-18.285714 18.285714l-182.857143 0q-18.285714 0-18.285714-18.285714l0 0q0-18.285714 18.285714-18.285715Z" fill="#1296db" p-id="8292"></path><path d="M877.715017 146.285714m0 18.285715l0 182.857142q0 18.285714-18.285714 18.285715l0 0q-18.285714 0-18.285714-18.285715l0-182.857142q0-18.285714 18.285714-18.285715l0 0q18.285714 0 18.285714 18.285715Z" fill="#1296db" p-id="8293"></path><path d="M146.286446 694.857143m18.285714 0l109.714286 0q18.285714 0 18.285714 18.285714l0 0q0 18.285714-18.285714 18.285714l-109.714286 0q-18.285714 0-18.285714-18.285714l0 0q0-18.285714 18.285714-18.285714Z" fill="#1296db" p-id="8294"></path><path d="M292.57216 987.428571m18.285714 0l109.714286 0q18.285714 0 18.285714 18.285715l0 0q0 18.285714-18.285714 18.285714l-109.714286 0q-18.285714 0-18.285714-18.285714l0 0q0-18.285714 18.285714-18.285715Z" fill="#1296db" p-id="8295"></path><path d="M713.143589 1024a310.857143 310.857143 0 1 1 310.857142-310.857143 311.222857 311.222857 0 0 1-310.857142 310.857143z m0-585.142857a274.285714 274.285714 0 1 0 274.285714 274.285714 274.285714 274.285714 0 0 0-274.285714-274.285714z" fill="#1296db" p-id="8296"></path><path d="M402.286446 987.428571H91.429303A54.857143 54.857143 0 0 1 36.57216 931.84v-841.142857A54.857143 54.857143 0 0 1 91.429303 36.571429h694.857143A54.857143 54.857143 0 0 1 841.143589 92.16V329.142857h36.571428V92.16A91.794286 91.794286 0 0 0 786.286446 0h-694.857143A91.794286 91.794286 0 0 0 0.000731 92.16v841.142857A91.794286 91.794286 0 0 0 91.429303 1024H402.286446z" fill="#1296db" p-id="8297"></path><path d="M889.417874 587.702857a18.651429 18.651429 0 0 0-25.965714 1.828572l-177.371429 209.554285-125.44-106.422857a18.651429 18.651429 0 0 0-25.965714 2.194286 17.92 17.92 0 0 0 2.194286 25.6l139.702857 118.125714a17.92 17.92 0 0 0 13.165714 4.388572 19.382857 19.382857 0 0 0 12.8-6.217143l189.074286-223.451429a17.92 17.92 0 0 0-2.194286-25.6z" fill="#1296db" p-id="8298"></path></svg>