<svg t="1733755496678" class="icon" viewBox="0 0 1024 1024" version="1.1" xmlns="http://www.w3.org/2000/svg" p-id="6312" xmlns:xlink="http://www.w3.org/1999/xlink" width="1rem" height="1rem"><path d="M850.24 486.4l-72-138.56 25.6-153.92-153.92 25.6-138.24-72-23.36 154.56-111.04 109.44 139.52 69.44 69.76 139.52 109.44-111.04 154.24-23.04zM394.24 480.96l-106.56 72.32-128.96-6.4 35.84 123.84-46.08 120.32 128.96 4.48 100.16 80.96 44.16-121.28 107.84-70.4-101.44-79.36-33.92-124.48zM875.52 695.36l-85.44-27.2-52.16-72.96-52.16 72.96-85.44 27.2 53.12 72-0.64 89.6 85.12-28.16 84.8 28.16-0.64-89.6 53.44-72z" p-id="6313" fill="#1296db"></path></svg>